<svg xmlns="http://www.w3.org/2000/svg" version="1.1" xmlns:xlink="http://www.w3.org/1999/xlink" width="500" height="500"><svg xmlns="http://www.w3.org/2000/svg" version="1.1" xmlns:xlink="http://www.w3.org/1999/xlink" width="500" height="500"><svg xmlns="http://www.w3.org/2000/svg" id="Layer_2" viewBox="0 0 500 500"><g id="Layer_1-2"><circle cx="250" cy="250" r="250" style="fill:#cf2c35; stroke-width:0px;"></circle><path d="m372.98,228.06c5.46-22.81,10.92-45.62,16.48-68.86,14.2-.17,28.35-.04,43-.08-10.39,42.5-20.67,84.51-30.97,126.63h-44.72c-8.99-23.52-17.99-47.1-26.99-70.67-.26.01-.51.02-.77.03-2.28,7.68-3.86,15.54-5.81,23.31-1.98,7.87-3.82,15.77-5.72,23.65-1.9,7.87-3.81,15.74-5.73,23.7h-43c10.2-42.28,20.35-84.3,30.52-126.46h45.16c9.23,23.03,18.42,45.97,27.61,68.92l.95-.17Z" style="fill:#fff; stroke-width:0px;"></path><path d="m181,247.74c-2.72,12.95-5.37,25.59-8.05,38.36h-38.5c8.76-42.36,17.6-84.45,26.4-126.64.8-.11,1.4-.27,2.01-.26,21.61.02,43.22.01,64.82.12,2.61.01,5.26.41,7.81.99,14.58,3.32,23.91,13.67,26.19,28.94,1.18,7.88,1.42,15.77-.93,23.5-4.37,14.37-14.17,23.87-27.54,29.99-7.19,3.29-14.85,4.74-22.7,4.91-8.64.2-17.29.07-25.93.09-1.14,0-2.27,0-3.59,0Zm6.43-30.62c.72.23,1.02.4,1.31.4,5.9,0,11.8.13,17.69-.1,3.57-.14,7.1-.91,10.3-2.68,4.77-2.64,7.23-7.69,6.49-13.34-.62-4.68-3.69-7.69-9.26-9.07-.51-.13-1.03-.27-1.55-.29-6.3-.15-12.6-.27-18.91-.38-.17,0-.34.21-.79.5-1.73,8.17-3.51,16.56-5.29,24.95Z" style="fill:#4e4e4e; stroke-width:0px;"></path><path d="m78.1,286.08c6.41-30.85,12.75-61.31,19.11-91.95h34.98c-1.83,10.4-4.17,20.49-6.25,30.63-2.09,10.21-4.25,20.4-6.37,30.6-2.12,10.19-4.22,20.38-6.36,30.72h-35.12Z" style="fill:#4e4e4e; stroke-width:0px;"></path><path d="m134.38,183.58h-35.06c1.71-8.2,3.37-16.17,5.05-24.24h34.94c-1.35,8.17-3.23,16.07-4.93,24.24Z" style="fill:#4e4e4e; stroke-width:0px;"></path><polygon points="76.83 296.63 67.54 340.89 376.69 340.89 432.46 297.07 76.83 296.63" style="fill:#4e4e4e; stroke-width:0px;"></polygon></g></svg></svg><style>@media (prefers-color-scheme: light) { :root { filter: none; } }
@media (prefers-color-scheme: dark) { :root { filter: none; } }
</style></svg>